# 3ds Max Wavefront OBJ Exporter v0.97b - (c)2007 guruware
# File Created: 29.12.2022 12:42:42

mtllib AletaSup.mtl

#
# object AletaSuperior
#

v  -0.4200 7.0068 -3.6404
v  -0.4281 6.2717 -3.3402
v  -0.4644 7.0187 -3.0178
v  -0.2010 7.4231 -2.4706
v  -0.3944 6.1695 -1.3602
v  -0.1399 6.6383 -1.1243
v  -0.6419 5.2571 -1.7587
v  -0.5079 4.9378 -2.7959
v  -0.5263 4.6009 -2.7069
v  -0.3989 4.2880 -3.6703
v  -0.2746 4.5402 -4.0906
v  -0.2676 3.8406 -3.9380
v  -0.4138 5.5262 -0.7137
v  -0.2530 7.7444 -3.6162
v  -0.4590 7.0467 -3.0697
v  -0.3906 7.4113 -3.7333
v  -0.2988 7.9007 -4.6241
v  -0.3613 7.4372 -4.1642
v  -0.3824 4.8601 -0.1733
v  -0.7399 3.4625 -0.7219
v  -0.4397 4.2391 0.2000
v  0.0134 0.5959 -5.4321
v  -0.6191 0.0438 -3.5385
v  -0.5103 1.3606 -3.2066
v  0.1562 -0.3456 -6.6162
v  -0.4206 2.8849 0.9500
v  -0.4263 3.5608 0.6054
v  -0.8234 1.5634 0.0255
v  -0.4482 1.8815 -2.9280
v  -0.4214 1.3837 1.6320
v  -0.4607 2.1584 1.2845
v  -0.9292 0.3363 0.4212
v  -0.4838 0.3135 2.2880
v  -0.4637 0.8572 1.8664
v  -0.2659 2.8614 -3.8987
v  -0.2664 2.5253 -3.9116
v  -0.5168 2.7061 -3.6048
v  -0.5685 1.7110 -3.6790
v  -0.4802 2.0855 -3.6591
v  -0.1780 2.1662 -4.2523
v  -0.4166 3.9781 -3.6068
v  -0.4550 3.5856 -3.5655
v  -0.4775 3.1902 -3.5670
v  -0.2729 3.2259 -4.0540
v  -0.4313 2.2868 -2.7425
v  -0.6047 3.5363 -2.4234
v  -0.2357 1.9955 -4.0212
v  -0.1850 1.6312 -4.5118
v  -0.1764 1.8095 -4.1686
v  -0.0970 5.7492 -0.1798
v  -0.0576 4.6583 0.6876
v  -0.0280 3.6157 1.3377
v  -0.0006 2.5388 1.9414
v  0.0221 1.1382 2.6259
v  0.0416 0.3024 3.0906
v  -0.2950 6.9897 -4.5415
v  -0.1712 6.0391 -4.1068
v  -0.2833 5.8738 -4.2833
v  -0.1738 6.9946 -4.2909
v  0.0923 6.1695 -1.3823
v  -0.1262 5.1177 -3.8494
v  -0.1087 4.6529 -3.7340
v  -0.0860 4.2953 -3.6568
v  0.1702 5.5262 -0.7403
v  0.3026 5.2571 -1.8016
v  0.0117 7.0187 -3.0394
v  -0.1420 7.4551 -3.8239
v  0.0017 7.0467 -3.0906
v  -0.1873 7.4221 -4.1301
v  -0.3060 7.6582 -4.7836
v  0.1879 4.8601 -0.1992
v  0.2788 4.2391 0.1674
v  0.4942 3.4625 -0.7780
v  0.4952 1.3598 -3.1918
v  0.6011 0.0433 -3.5217
v  0.3022 3.5608 0.5723
v  0.3277 2.8849 0.9161
v  0.4443 2.3044 -2.7931
v  0.0699 2.1021 -3.6933
v  0.0107 2.7061 -3.6287
v  0.6451 1.5634 -0.0411
v  0.3980 2.1584 1.2455
v  0.3904 1.3837 1.5952
v  0.7895 0.3378 0.3519
v  0.4487 0.8572 1.8265
v  0.5024 0.3147 2.2346
v  0.1219 1.7104 -3.7266
v  -0.0684 3.9781 -3.6226
v  -0.0335 3.5856 -3.5846
v  -0.0127 3.1703 -3.6112
v  0.1608 3.5383 -2.5055
v  0.0759 4.7263 -2.8664
v  -0.3858 4.6468 -3.7413
v  -0.3706 5.0872 -3.8514
v  -0.3682 6.0209 -4.1179
v  -0.3681 6.9930 -4.3684
v  -0.0867 6.4920 -3.6134
v  -0.1149 7.0023 -3.8939
# 98 vertices

vn -0.9973 0.0152 -0.0714
vn -0.9950 -0.0054 -0.1001
vn -0.9784 0.1998 0.0524
vn 0.0180 0.9178 0.3966
vn -0.9325 0.2776 0.2311
vn 0.0268 0.8070 0.5899
vn -0.9954 0.0912 0.0285
vn -0.9912 0.0117 -0.1319
vn -0.9918 0.0210 -0.1262
vn -0.9709 -0.0163 -0.2388
vn -0.0641 -0.1501 -0.9866
vn -0.0659 0.0261 -0.9975
vn -0.9288 0.2427 0.2800
vn 0.0082 0.9834 0.1810
vn -0.9762 0.2165 0.0152
vn -0.9767 0.2140 0.0169
vn -0.0244 0.8433 -0.5368
vn -0.9949 0.0469 -0.0898
vn -0.9253 0.2321 0.2998
vn -0.9963 0.0657 0.0546
vn -0.9252 0.2201 0.3093
vn -0.0428 0.7021 -0.7108
vn -0.7954 0.5747 -0.1924
vn -0.9952 0.0578 -0.0793
vn -0.0271 0.9684 -0.2478
vn -0.9230 0.1828 0.3386
vn -0.9233 0.1777 0.3404
vn -0.9935 0.0913 0.0676
vn -0.9962 0.0843 -0.0216
vn -0.9236 0.1640 0.3466
vn -0.9240 0.1660 0.3446
vn -0.8067 0.5896 0.0398
vn -0.6038 0.7445 0.2849
vn -0.9067 0.2448 0.3435
vn -0.0590 -0.0537 -0.9968
vn -0.1199 0.2481 -0.9613
vn -0.9430 0.0072 -0.3326
vn -0.9873 0.0857 -0.1338
vn -0.9630 0.0728 -0.2596
vn 0.0862 -0.0313 -0.9958
vn -0.9616 0.0265 -0.2731
vn -0.9604 0.0617 -0.2717
vn -0.9534 0.0489 -0.2977
vn -0.0644 -0.0805 -0.9947
vn -0.9993 -0.0224 -0.0299
vn -0.9962 -0.0165 -0.0858
vn -0.2356 -0.1632 -0.9580
vn -0.0893 0.7186 -0.6896
vn 0.0919 0.8223 -0.5615
vn 0.0334 0.6778 0.7345
vn 0.0366 0.5909 0.8059
vn 0.0392 0.5032 0.8633
vn 0.0414 0.4730 0.8801
vn 0.0340 0.4741 0.8798
vn 0.0063 0.9664 0.2569
vn -0.0294 -0.0265 -0.9992
vn 0.9450 -0.0529 -0.3227
vn -0.0508 -0.2159 -0.9751
vn 0.9468 0.0472 -0.3182
vn 0.9496 0.2776 0.1457
vn 0.9557 -0.0310 -0.2927
vn 0.9514 -0.0203 -0.3073
vn 0.9427 -0.0124 -0.3333
vn 0.9504 0.2427 0.1947
vn 0.9942 0.0904 -0.0580
vn 0.9778 0.2071 -0.0317
vn 0.9742 0.2140 -0.0717
vn 0.9736 0.2163 -0.0733
vn 0.9817 0.0611 -0.1806
vn -0.0448 0.1621 -0.9858
vn 0.9487 0.2321 0.2146
vn 0.9494 0.2201 0.2241
vn 0.9936 0.1131 0.0025
vn 0.9615 0.1724 -0.2141
vn 0.8138 0.5618 -0.1484
vn 0.9504 0.1777 0.2553
vn 0.9499 0.1828 0.2535
vn 0.9589 0.1735 -0.2244
vn 0.8362 0.1509 -0.5272
vn 0.8386 0.1270 -0.5298
vn 0.9924 0.1118 0.0508
vn 0.9510 0.1651 0.2615
vn 0.9486 0.1653 0.2699
vn 0.8150 0.5786 0.0313
vn 0.9323 0.2413 0.2696
vn 0.6111 0.7556 0.2359
vn 0.8290 0.3232 -0.4564
vn 0.9283 0.0207 -0.3714
vn 0.9365 0.0639 -0.3447
vn 0.9242 0.0318 -0.3807
vn 0.9718 0.1212 -0.2023
vn 0.9790 0.0048 -0.2039
vn -0.9772 -0.0127 -0.2117
vn -0.9789 -0.0248 -0.2029
vn -0.9711 -0.0607 -0.2308
vn -0.9632 0.0377 -0.2662
vn 0.9856 -0.0068 -0.1691
vn 0.9886 0.0306 -0.1471
# 98 vertex normals

vt 0.0372 1.5186 0.0000
vt 0.0596 1.5171 0.0000
vt 0.0391 1.5079 0.0000
vt 0.0320 1.4963 0.0000
vt 0.0679 1.4828 0.0000
vt 0.0575 1.4762 0.0000
vt 0.0911 1.4941 0.0000
vt 0.0982 1.5139 0.0000
vt 0.1079 1.5138 0.0000
vt 0.1151 1.5336 0.0000
vt 0.1072 1.5385 0.0000
vt 0.1279 1.5393 0.0000
vt 0.0869 1.4738 0.0000
vt 0.0183 1.5140 0.0000
vt 0.0381 1.5087 0.0000
vt 0.0265 1.5182 0.0000
vt 0.0109 1.5311 0.0000
vt 0.0240 1.5256 0.0000
vt 0.1061 1.4665 0.0000
vt 0.1422 1.4821 0.0000
vt 0.1234 1.4619 0.0000
vt 0.2220 1.5653 0.0000
vt 0.2298 1.5338 0.0000
vt 0.1973 1.5283 0.0000
vt 0.2418 1.5837 0.0000
vt 0.1579 1.4498 0.0000
vt 0.1422 1.4566 0.0000
vt 0.1896 1.4698 0.0000
vt 0.1816 1.5240 0.0000
vt 0.1896 1.4334 0.0000
vt 0.1735 1.4420 0.0000
vt 0.2150 1.4594 0.0000
vt 0.2127 1.4164 0.0000
vt 0.2009 1.4272 0.0000
vt 0.1569 1.5432 0.0000
vt 0.1670 1.5442 0.0000
vt 0.1614 1.5382 0.0000
vt 0.1904 1.5398 0.0000
vt 0.1790 1.5420 0.0000
vt 0.1769 1.5494 0.0000
vt 0.1240 1.5324 0.0000
vt 0.1355 1.5336 0.0000
vt 0.1464 1.5386 0.0000
vt 0.1460 1.5447 0.0000
vt 0.1698 1.5178 0.0000
vt 0.1382 1.5129 0.0000
vt 0.1825 1.5459 0.0000
vt 0.1932 1.5537 0.0000
vt 0.1874 1.5478 0.0000
vt 0.0836 1.4627 0.0000
vt 0.1145 1.4507 0.0000
vt 0.1411 1.4399 0.0000
vt 0.1649 1.4258 0.0000
vt 0.1951 1.4086 0.0000
vt 0.2130 1.3980 0.0000
vt 0.0344 1.5340 0.0000
vt 0.0635 1.5315 0.0000
vt 0.0676 1.5355 0.0000
vt 0.0352 1.5296 0.0000
vt 0.0913 1.5314 0.0000
vt 0.1047 1.5315 0.0000
vt 0.0251 1.5194 0.0000
vt 0.0245 1.5250 0.0000
vt 0.0160 1.5352 0.0000
vt 0.1693 1.5190 0.0000
vt 0.2126 1.4167 0.0000
vt 0.1904 1.5402 0.0000
vt 0.1381 1.5138 0.0000
vt 0.1041 1.5156 0.0000
vt 0.1048 1.5319 0.0000
vt 0.0922 1.5318 0.0000
vt 0.0639 1.5320 0.0000
vt 0.0350 1.5311 0.0000
vt 0.0522 1.5206 0.0000
vt 0.0365 1.5227 0.0000
# 75 texture coords

o AletaSuperior
g AletaSuperior
usemtl 07___Default
s 1
f 1/1/1 2/2/2 3/3/3 
f 4/4/4 5/5/5 6/6/6 
f 2/2/2 7/7/7 3/3/3 
f 7/7/7 2/2/2 8/8/8 
f 8/8/8 9/9/9 7/7/7 
f 10/10/10 11/11/11 12/12/12 
f 5/5/5 7/7/7 13/13/13 
f 7/7/7 5/5/5 3/3/3 
f 14/14/14 15/15/15 3/3/3 
f 14/14/14 16/16/16 15/15/15 
f 14/14/14 17/17/17 16/16/16 
f 16/16/16 18/18/18 15/15/15 
f 19/19/19 20/20/20 21/21/21 
f 19/19/19 13/13/13 7/7/7 
f 22/22/22 23/23/23 24/24/24 
f 23/23/23 22/22/22 25/25/25 
f 20/20/20 26/26/26 27/27/27 
f 27/27/27 21/21/21 20/20/20 
f 24/24/24 28/28/28 29/29/29 
f 28/28/28 26/26/26 20/20/20 
f 28/28/28 30/30/30 31/31/31 
f 28/28/28 32/32/32 30/30/30 
f 32/32/32 33/33/33 34/34/34 
f 32/32/32 28/28/28 24/24/24 
f 23/23/23 32/32/32 24/24/24 
f 35/35/35 36/36/36 37/37/37 
f 22/22/22 24/24/24 38/38/38 
f 39/39/39 36/36/36 40/40/40 
f 12/12/12 41/41/41 10/10/10 
f 12/12/12 42/42/42 41/41/41 
f 42/42/42 12/12/12 43/43/43 
f 12/12/12 44/44/44 43/43/43 
f 4/4/4 14/14/14 3/3/3 
f 20/20/20 45/45/45 28/28/28 
f 45/45/45 20/20/20 46/46/46 
f 28/28/28 45/45/45 29/29/29 
f 9/9/9 20/20/20 7/7/7 
f 20/20/20 9/9/9 46/46/46 
f 36/36/36 39/39/39 37/37/37 
f 39/39/39 40/40/40 47/47/47 
f 39/39/39 47/47/47 38/38/38 
f 38/38/38 24/24/24 39/39/39 
f 48/48/48 38/38/38 49/49/49 
f 3/3/3 18/18/18 1/1/1 
f 18/18/18 3/3/3 15/15/15 
f 44/44/44 35/35/35 43/43/43 
f 37/37/37 43/43/43 35/35/35 
f 5/5/5 4/4/4 3/3/3 
f 6/6/6 5/5/5 50/50/50 
f 5/5/5 13/13/13 50/50/50 
f 20/20/20 19/19/19 7/7/7 
f 19/19/19 50/50/50 13/13/13 
f 50/50/50 19/19/19 51/51/51 
f 19/19/19 21/21/21 51/51/51 
f 52/52/52 51/51/51 21/21/21 
f 52/52/52 21/21/21 27/27/27 
f 27/27/27 53/53/53 52/52/52 
f 26/26/26 53/53/53 27/27/27 
f 28/28/28 31/31/31 26/26/26 
f 31/31/31 53/53/53 26/26/26 
f 31/31/31 54/54/54 53/53/53 
f 30/30/30 54/54/54 31/31/31 
f 30/30/30 32/32/32 34/34/34 
f 30/30/30 34/34/34 54/54/54 
f 55/55/55 34/34/34 33/33/33 
f 34/34/34 55/55/55 54/54/54 
f 56/56/56 57/57/57 58/58/58 
f 57/57/57 56/56/56 59/59/59 
f 4/4/4 6/6/6 60/5/60 
f 11/11/11 61/60/61 62/61/62 
f 61/60/61 58/58/58 57/57/57 
f 58/58/58 61/60/61 11/11/11 
f 11/11/11 62/61/62 63/10/63 
f 63/10/63 12/12/12 11/11/11 
f 60/5/60 64/13/64 65/7/65 
f 65/7/65 66/3/66 60/5/60 
f 14/14/14 67/62/67 17/17/17 
f 14/14/14 68/15/68 67/62/67 
f 14/14/14 66/3/66 68/15/68 
f 17/17/17 69/63/69 70/64/70 
f 69/63/69 17/17/17 67/62/67 
f 71/19/71 72/21/72 73/20/73 
f 71/19/71 65/7/65 64/13/64 
f 22/22/22 74/24/74 75/23/75 
f 75/23/75 25/25/25 22/22/22 
f 73/20/73 76/27/76 77/26/77 
f 76/27/76 73/20/73 72/21/72 
f 78/65/78 79/39/79 80/37/80 
f 79/39/79 78/65/78 74/24/74 
f 81/28/81 73/20/73 77/26/77 
f 81/28/81 82/31/82 83/30/83 
f 81/28/81 83/30/83 84/32/84 
f 84/32/84 85/34/85 86/66/86 
f 84/32/84 74/24/74 81/28/81 
f 75/23/75 74/24/74 84/32/84 
f 35/35/35 80/37/80 36/36/36 
f 22/22/22 87/67/87 74/24/74 
f 79/39/79 36/36/36 80/37/80 
f 12/12/12 63/10/63 88/41/88 
f 12/12/12 88/41/88 89/42/89 
f 90/43/90 44/44/44 12/12/12 
f 89/42/89 90/43/90 12/12/12 
f 4/4/4 66/3/66 14/14/14 
f 80/37/80 91/68/91 78/65/78 
f 91/68/91 90/43/90 89/42/89 
f 80/37/80 90/43/90 91/68/91 
f 92/69/92 88/41/88 63/10/63 
f 88/41/88 91/68/91 89/42/89 
f 92/69/92 91/68/91 88/41/88 
f 36/36/36 79/39/79 40/40/40 
f 40/40/40 79/39/79 47/47/47 
f 47/47/47 79/39/79 87/67/87 
f 87/67/87 79/39/79 74/24/74 
f 48/48/48 49/49/49 87/67/87 
f 69/63/69 56/56/56 70/64/70 
f 56/56/56 69/63/69 59/59/59 
f 90/43/90 80/37/80 35/35/35 
f 35/35/35 44/44/44 90/43/90 
f 60/5/60 66/3/66 4/4/4 
f 6/6/6 50/50/50 60/5/60 
f 60/5/60 50/50/50 64/13/64 
f 73/20/73 65/7/65 71/19/71 
f 71/19/71 64/13/64 50/50/50 
f 50/50/50 51/51/51 71/19/71 
f 71/19/71 51/51/51 72/21/72 
f 52/52/52 72/21/72 51/51/51 
f 52/52/52 76/27/76 72/21/72 
f 76/27/76 52/52/52 53/53/53 
f 77/26/77 76/27/76 53/53/53 
f 81/28/81 77/26/77 82/31/82 
f 82/31/82 77/26/77 53/53/53 
f 82/31/82 53/53/53 54/54/54 
f 83/30/83 82/31/82 54/54/54 
f 83/30/83 85/34/85 84/32/84 
f 83/30/83 54/54/54 85/34/85 
f 85/34/85 55/55/55 86/66/86 
f 55/55/55 85/34/85 54/54/54 
f 22/22/22 38/38/38 48/48/48 
f 22/22/22 48/48/48 87/67/87 
f 38/38/38 47/47/47 49/49/49 
f 49/49/49 47/47/47 87/67/87 
f 10/10/10 93/70/93 11/11/11 
f 93/70/93 94/71/94 11/11/11 
f 94/71/94 58/58/58 11/11/11 
f 58/58/58 94/71/94 95/72/95 
f 56/56/56 95/72/95 96/73/96 
f 95/72/95 56/56/56 58/58/58 
f 56/56/56 18/18/18 70/64/70 
f 18/18/18 56/56/56 96/73/96 
f 17/17/17 18/18/18 16/16/16 
f 18/18/18 17/17/17 70/64/70 
f 62/61/62 92/69/92 63/10/63 
f 62/61/62 97/74/97 92/69/92 
f 97/74/97 61/60/61 57/57/57 
f 62/61/62 61/60/61 97/74/97 
f 59/59/59 97/74/97 57/57/57 
f 97/74/97 59/59/59 98/75/98 
f 59/59/59 69/63/69 98/75/98 
f 69/63/69 67/62/67 68/15/68 
f 24/24/24 29/29/29 39/39/39 
f 29/29/29 37/37/37 39/39/39 
f 37/37/37 29/29/29 45/45/45 
f 43/43/43 46/46/46 42/42/42 
f 37/37/37 46/46/46 43/43/43 
f 45/45/45 46/46/46 37/37/37 
f 46/46/46 41/41/41 42/42/42 
f 41/41/41 46/46/46 9/9/9 
f 9/9/9 10/10/10 41/41/41 
f 10/10/10 8/8/8 93/70/93 
f 9/9/9 8/8/8 10/10/10 
f 8/8/8 94/71/94 93/70/93 
f 94/71/94 8/8/8 2/2/2 
f 2/2/2 95/72/95 94/71/94 
f 95/72/95 1/1/1 96/73/96 
f 2/2/2 1/1/1 95/72/95 
f 1/1/1 18/18/18 96/73/96 
f 74/24/74 78/65/78 81/28/81 
f 78/65/78 73/20/73 81/28/81 
f 73/20/73 78/65/78 91/68/91 
f 73/20/73 92/69/92 65/7/65 
f 92/69/92 73/20/73 91/68/91 
f 65/7/65 97/74/97 66/3/66 
f 97/74/97 65/7/65 92/69/92 
f 97/74/97 98/75/98 66/3/66 
f 66/3/66 69/63/69 68/15/68 
f 69/63/69 66/3/66 98/75/98 
# 0 polygons - 186 triangles

