# 3ds Max Wavefront OBJ Exporter v0.97b - (c)2007 guruware
# File Created: 29.12.2022 13:06:51

mtllib ColaTiburon.mtl

#
# object ColaTiburon_
#

v  0.5260 -1.4012 0.9097
v  0.2064 -1.4823 0.1213
v  0.6056 -1.7023 0.6167
v  3.6381 1.6562 -9.4482
v  2.9070 1.8368 -7.4534
v  3.7674 2.5302 -10.1182
v  3.4321 3.0434 -8.1781
v  3.3123 0.7252 -7.9255
v  3.6466 1.0651 -9.1911
v  4.0686 3.3748 -9.9159
v  1.4381 -9.0627 -2.8598
v  0.8892 -7.8524 -1.8322
v  1.4784 -7.4917 -2.7978
v  1.0921 -9.0902 -2.2573
v  0.7888 -6.2745 -1.5924
v  0.5744 -1.6765 -1.2031
v  1.1206 -2.0079 -2.4274
v  1.6228 -5.3698 -3.0037
v  2.0902 -2.8838 -3.8113
v  1.7839 -3.9627 -3.3442
v  0.7825 -6.9388 -0.5828
v  0.6422 -4.7119 0.1017
v  0.6480 -2.9909 0.3145
v  2.0399 2.3803 -3.4033
v  1.2687 1.2515 -2.6951
v  1.5436 1.9294 -1.9330
v  1.6275 1.7611 -3.7067
v  2.5992 2.8303 -5.1337
v  2.3323 2.3176 -5.4851
v  1.0701 1.4499 -0.4863
v  1.3037 1.6423 -1.2174
v  0.8658 1.2233 -0.5975
v  0.3865 1.0865 -0.0935
v  0.9151 1.4657 0.0230
v  4.4254 3.5367 -11.1837
v  4.2244 3.5812 -9.8166
v  4.2351 3.3758 -11.0074
v  4.5291 3.4517 -12.0595
v  4.5664 3.2616 -12.6922
v  4.1305 2.2912 -11.2995
v  3.8684 1.7042 -10.6649
v  3.6693 0.3842 -8.3741
v  1.3039 -10.3534 -2.5764
v  1.4648 -10.6370 -3.1034
v  1.2117 -9.9489 -2.2552
v  1.0779 -9.2250 -1.7692
v  0.2192 -1.2952 -1.5539
v  -0.7922 -0.0567 -0.4572
v  0.5621 -0.9390 -1.6730
v  -0.1712 -1.0285 -0.1002
v  -0.7284 -0.4988 -0.3044
v  0.9049 -7.9845 -1.0867
v  1.5390 0.4867 -3.7524
v  2.6575 -0.2526 -6.1644
v  2.3134 1.3979 -5.6183
v  2.9020 -1.0622 -6.1472
v  3.5888 0.9844 -10.1606
v  2.8778 2.6708 -6.9363
v  3.1018 -0.6514 -6.7291
v  3.5031 0.1158 -7.8888
v  3.8781 3.4362 -8.4997
v  3.1251 3.1723 -6.7110
v  1.1367 1.1194 -2.1745
v  0.8404 0.9823 -1.5161
v  0.6357 0.7535 -0.9547
v  -0.0278 0.4157 -0.1907
v  1.2270 -1.5204 0.4371
v  3.7219 1.8070 -7.1963
v  4.1650 2.4169 -10.0619
v  3.9879 2.9627 -8.0441
v  4.2695 3.3191 -9.8860
v  1.3608 -7.8689 -1.6787
v  1.4094 -6.2962 -1.3904
v  1.9781 -2.0318 -2.1482
v  1.6563 -1.7160 -0.8646
v  2.1814 1.2311 -2.3987
v  2.4263 1.7486 -3.4409
v  3.0234 2.3097 -5.2530
v  1.2854 1.2095 -0.4682
v  1.3834 1.0519 0.2144
v  4.4452 3.3169 -10.9766
v  2.1658 -1.3774 -0.9366
v  1.6947 -1.0966 0.4776
v  2.2937 -0.6371 0.5969
v  1.9810 -0.9906 -1.2303
v  2.4711 -0.1929 0.5286
v  3.1137 1.3851 -5.3535
v  3.4404 2.6648 -6.7479
v  2.5878 0.4702 -3.4039
v  1.9688 1.0980 -1.9073
v  1.8053 0.9491 -1.2170
v  1.7457 0.3034 0.3495
v  1.6358 0.7190 -0.6457
v  3.9306 1.5899 -9.3979
v  3.6875 0.7166 -7.8072
v  3.1278 -0.2644 -6.0149
v  3.6643 1.2910 -9.5283
v  3.5606 0.4693 -8.0497
v  2.9545 -0.5966 -6.2777
v  1.3592 -9.0995 -2.1703
# 100 vertices

vn -0.2323 -0.7092 0.6657
vn -0.8869 -0.4575 0.0647
vn -0.2734 -0.4866 0.8297
vn -0.9744 -0.0570 -0.2176
vn -0.9439 0.0185 -0.3297
vn -0.9551 0.1736 -0.2401
vn -0.8377 0.5131 -0.1873
vn -0.8714 -0.2743 -0.4068
vn -0.1277 -0.8115 -0.5702
vn -0.8342 0.5266 -0.1638
vn 0.3106 0.0725 -0.9478
vn -0.9648 -0.0469 -0.2590
vn 0.3082 -0.0379 -0.9506
vn -0.9566 -0.0538 -0.2865
vn -0.9614 -0.0264 -0.2739
vn -0.8784 -0.4487 -0.1648
vn -0.8658 -0.0979 -0.4906
vn 0.2832 -0.2521 -0.9254
vn 0.2840 -0.6245 -0.7276
vn 0.2552 -0.3047 -0.9176
vn -0.3000 -0.3288 0.8955
vn -0.3038 -0.2586 0.9170
vn -0.2878 -0.3489 0.8919
vn -0.0239 0.9571 0.2888
vn -0.9262 0.3158 -0.2058
vn -0.0577 0.9620 0.2668
vn -0.9167 0.3471 -0.1979
vn -0.0598 0.9748 0.2148
vn -0.9119 0.3176 -0.2599
vn 0.0013 0.9943 0.1068
vn -0.0557 0.9554 0.2901
vn -0.6975 0.6713 -0.2509
vn -0.6537 0.6553 -0.3785
vn 0.0673 0.9935 -0.0915
vn 0.2878 0.9573 -0.0289
vn 0.2873 0.9518 0.1071
vn -0.8394 0.5200 -0.1580
vn 0.3573 0.9021 -0.2419
vn 0.1901 0.1615 -0.9684
vn -0.0637 -0.7881 -0.6123
vn -0.1066 -0.7011 -0.7050
vn 0.2660 -0.9025 -0.3387
vn -0.1894 -0.8398 0.5088
vn 0.1489 -0.8269 -0.5422
vn -0.2617 -0.6228 0.7373
vn -0.2732 -0.5621 0.7807
vn -0.7869 -0.2935 -0.5428
vn -0.5742 0.3301 -0.7492
vn -0.7411 0.2044 -0.6396
vn -0.7048 -0.7058 -0.0715
vn -0.8220 -0.4671 -0.3257
vn -0.2879 -0.4632 0.8382
vn -0.9243 -0.0034 -0.3817
vn -0.8747 -0.2063 -0.4386
vn -0.9360 0.0089 -0.3520
vn 0.2243 -0.6805 -0.6976
vn -0.2887 -0.8683 -0.4033
vn -0.8996 0.3391 -0.2753
vn 0.0948 -0.9392 -0.3302
vn 0.2043 -0.7489 -0.6303
vn 0.1547 0.9792 0.1316
vn -0.0511 0.9888 0.1404
vn -0.9101 0.3487 -0.2238
vn -0.8958 0.3843 -0.2232
vn -0.8363 0.4167 -0.3564
vn -0.5829 0.5392 -0.6078
vn 0.6623 -0.5165 0.5428
vn 0.9661 -0.0355 0.2559
vn 0.9682 -0.2430 0.0600
vn 0.9222 0.2389 0.3040
vn 0.9854 0.0133 0.1696
vn 0.9277 -0.1190 0.3537
vn 0.9348 -0.0983 0.3412
vn 0.9730 -0.1630 0.1636
vn 0.7748 -0.5061 0.3790
vn 0.8833 0.2686 0.3841
vn 0.8745 0.3127 0.3708
vn 0.8839 0.3098 0.3503
vn 0.7647 0.6130 0.1984
vn 0.8012 0.5941 0.0710
vn 0.9941 -0.0145 0.1071
vn 0.9320 -0.3616 0.0238
vn 0.5695 -0.7547 0.3257
vn 0.8214 -0.5375 0.1910
vn 0.9875 0.1462 -0.0591
vn 0.9107 0.2885 -0.2956
vn 0.9609 -0.0051 0.2768
vn 0.8783 0.2999 0.3723
vn 0.9638 -0.0148 0.2662
vn 0.8832 0.2825 0.3745
vn 0.8820 0.3142 0.3513
vn 0.8576 0.4862 -0.1678
vn 0.9187 0.3472 0.1882
vn 0.9334 -0.3587 -0.0038
vn 0.9717 -0.2154 0.0968
vn 0.9577 -0.2293 0.1735
vn -0.3978 -0.9143 0.0757
vn 0.0796 -0.9580 -0.2756
vn 0.1813 -0.8147 -0.5509
vn 0.9367 -0.1220 0.3283
# 100 vertex normals

vt 0.6692 1.9393 0.0000
vt 0.6666 1.9498 0.0000
vt 0.6737 1.9462 0.0000
vt 0.0652 1.6701 0.0000
vt 0.0991 1.6908 0.0000
vt 0.0628 1.6468 0.0000
vt 0.0972 1.6593 0.0000
vt 0.0810 1.7041 0.0000
vt 0.0636 1.6835 0.0000
vt 0.0732 1.6319 0.0000
vt 0.1046 1.9534 0.0000
vt 0.1246 1.9431 0.0000
vt 0.1070 1.9216 0.0000
vt 0.1231 1.9657 0.0000
vt 0.1375 1.9156 0.0000
vt 0.1587 1.8288 0.0000
vt 0.1371 1.8197 0.0000
vt 0.1068 1.8763 0.0000
vt 0.1081 1.8205 0.0000
vt 0.1055 1.8461 0.0000
vt 0.1504 1.9407 0.0000
vt 0.1663 1.9058 0.0000
vt 0.1778 1.8714 0.0000
vt 0.1603 1.7290 0.0000
vt 0.1647 1.7613 0.0000
vt 0.1769 1.7579 0.0000
vt 0.1548 1.7384 0.0000
vt 0.1388 1.6993 0.0000
vt 0.1330 1.7058 0.0000
vt 0.1910 1.7879 0.0000
vt 0.1841 1.7742 0.0000
vt 0.1883 1.7914 0.0000
vt 0.6117 1.9466 0.0000
vt 0.6221 1.9378 0.0000
vt 0.6144 1.9362 0.0000
vt 0.6077 1.9441 0.0000
vt 0.0563 1.6132 0.0000
vt 0.0765 1.6283 0.0000
vt 0.0574 1.6192 0.0000
vt 0.0430 1.6047 0.0000
vt 0.0322 1.6011 0.0000
vt 0.0436 1.6361 0.0000
vt 0.0476 1.6550 0.0000
vt 0.0702 1.7039 0.0000
vt 0.1153 1.9899 0.0000
vt 0.1049 1.9886 0.0000
vt 0.1238 1.9864 0.0000
vt 0.1359 1.9718 0.0000
vt 0.6486 1.9724 0.0000
vt 0.6405 1.9431 0.0000
vt 0.6391 1.9728 0.0000
vt 0.6586 1.9719 0.0000
vt 0.6580 1.9476 0.0000
vt 0.6488 1.9444 0.0000
vt 0.1444 1.9574 0.0000
vt 0.1799 1.8377 0.0000
vt 0.1427 1.7615 0.0000
vt 0.0985 1.7440 0.0000
vt 0.1227 1.7212 0.0000
vt 0.0918 1.7580 0.0000
vt 0.0485 1.6750 0.0000
vt 0.1144 1.6811 0.0000
vt 0.0852 1.7433 0.0000
vt 0.0750 1.7149 0.0000
vt 0.1573 1.8055 0.0000
vt 0.0954 1.6464 0.0000
vt 0.1210 1.6760 0.0000
vt 0.1699 1.7712 0.0000
vt 0.1763 1.7840 0.0000
vt 0.6503 1.9946 0.0000
vt 0.1830 1.8445 0.0000
vt 0.6176 1.9533 0.0000
vt 0.6342 1.9407 0.0000
vt 0.1814 1.7963 0.0000
vt 0.6666 1.9499 0.0000
vt 0.0990 1.6908 0.0000
vt 0.0627 1.6468 0.0000
vt 0.1374 1.9156 0.0000
vt 0.1370 1.8197 0.0000
vt 0.1547 1.7384 0.0000
vt 0.6221 1.9379 0.0000
vt 0.6586 1.9720 0.0000
vt 0.6489 1.9725 0.0000
vt 0.6581 1.9477 0.0000
vt 0.6489 1.9449 0.0000
vt 0.6391 1.9729 0.0000
vt 0.6406 1.9433 0.0000
vt 0.1798 1.8377 0.0000
vt 0.1226 1.7212 0.0000
vt 0.1143 1.6811 0.0000
vt 0.1572 1.8055 0.0000
vt 0.1426 1.7615 0.0000
vt 0.1698 1.7712 0.0000
vt 0.1762 1.7840 0.0000
vt 0.6503 1.9947 0.0000
vt 0.6341 1.9409 0.0000
vt 0.6176 1.9534 0.0000
vt 0.1813 1.7963 0.0000
vt 0.0651 1.6701 0.0000
vt 0.0808 1.7041 0.0000
vt 0.0983 1.7441 0.0000
vt 0.0605 1.6758 0.0000
vt 0.0759 1.7064 0.0000
vt 0.0924 1.7479 0.0000
# 104 texture coords

o ColaTiburon_
g ColaTiburon_
usemtl 07___Default
s 1
f 1/1/1 2/2/2 3/3/3 
f 4/4/4 5/5/5 6/6/6 
f 5/5/5 7/7/7 6/6/6 
f 8/8/8 4/4/4 9/9/9 
f 6/6/6 7/7/7 10/10/10 
f 11/11/11 12/12/12 13/13/13 
f 11/11/11 14/14/14 12/12/12 
f 15/15/15 16/16/16 17/17/17 
f 17/17/17 18/18/18 15/15/15 
f 17/17/17 19/19/19 20/20/20 
f 17/17/17 20/20/20 18/18/18 
f 15/15/15 21/21/21 16/16/16 
f 16/16/16 21/21/21 22/22/22 
f 22/22/22 23/23/23 16/16/16 
f 24/24/24 25/25/25 26/26/26 
f 24/24/24 27/27/27 25/25/25 
f 24/24/24 28/28/28 27/27/27 
f 27/27/27 28/28/28 29/29/29 
f 30/30/30 31/31/31 32/32/32 
f 32/33/32 33/34/33 34/35/34 
f 30/36/30 32/33/32 34/35/34 
f 35/37/35 10/10/10 36/38/36 
f 35/37/35 37/39/37 10/10/10 
f 35/37/35 38/40/38 37/39/37 
f 39/41/39 37/39/37 38/40/38 
f 37/39/37 39/41/39 6/6/6 
f 39/41/39 40/42/40 6/6/6 
f 40/42/40 41/43/41 6/6/6 
f 8/8/8 5/5/5 4/4/4 
f 42/44/42 8/8/8 9/9/9 
f 43/45/43 14/14/14 44/46/44 
f 14/14/14 11/11/11 44/46/44 
f 43/45/43 45/47/45 14/14/14 
f 45/47/45 46/48/46 14/14/14 
f 47/49/47 48/50/48 49/51/49 
f 47/49/47 16/52/16 50/53/50 
f 47/49/47 51/54/51 48/50/48 
f 12/12/12 21/21/21 15/15/15 
f 21/21/21 12/12/12 52/55/52 
f 13/13/13 15/15/15 18/18/18 
f 12/12/12 15/15/15 13/13/13 
f 12/12/12 46/48/46 52/55/52 
f 14/14/14 46/48/46 12/12/12 
f 2/2/2 50/53/50 16/52/16 
f 23/23/23 2/56/2 16/16/16 
f 53/57/53 19/19/19 17/17/17 
f 54/58/54 19/19/19 53/57/53 
f 55/59/55 54/58/54 53/57/53 
f 54/58/54 56/60/56 19/19/19 
f 4/4/4 6/6/6 41/43/41 
f 4/4/4 41/43/41 57/61/57 
f 5/5/5 54/58/54 55/59/55 
f 55/59/55 58/62/58 5/5/5 
f 8/8/8 54/58/54 5/5/5 
f 59/63/59 54/58/54 60/64/60 
f 60/64/60 54/58/54 8/8/8 
f 55/59/55 29/29/29 58/62/58 
f 49/65/49 53/57/53 17/17/17 
f 10/10/10 61/66/61 36/38/36 
f 7/7/7 61/66/61 10/10/10 
f 58/62/58 62/67/62 61/66/61 
f 7/7/7 58/62/58 61/66/61 
f 29/29/29 28/28/28 62/67/62 
f 58/62/58 29/29/29 62/67/62 
f 53/57/53 29/29/29 55/59/55 
f 27/27/27 29/29/29 53/57/53 
f 63/68/63 26/26/26 25/25/25 
f 26/26/26 64/69/64 31/31/31 
f 26/26/26 63/68/63 64/69/64 
f 47/49/47 49/51/49 17/70/17 
f 3/71/3 2/56/2 23/23/23 
f 49/65/49 25/25/25 53/57/53 
f 49/65/49 63/68/63 25/25/25 
f 5/5/5 58/62/58 7/7/7 
f 37/39/37 6/6/6 10/10/10 
f 32/33/32 65/72/65 33/34/33 
f 65/72/65 66/73/66 33/34/33 
f 65/74/65 31/31/31 64/69/64 
f 32/32/32 31/31/31 65/74/65 
f 66/73/66 49/51/49 48/50/48 
f 66/73/66 65/72/65 49/51/49 
f 65/74/65 64/69/64 49/65/49 
f 63/68/63 49/65/49 64/69/64 
f 27/27/27 53/57/53 25/25/25 
f 1/1/1 3/3/3 67/75/67 
f 68/76/68 69/77/69 70/7/70 
f 69/77/69 71/10/71 70/7/70 
f 13/13/13 72/12/72 11/11/11 
f 73/78/73 74/79/74 75/16/75 
f 74/79/74 73/78/73 18/18/18 
f 74/79/74 20/20/20 19/19/19 
f 74/79/74 18/18/18 20/20/20 
f 73/78/73 75/16/75 21/21/21 
f 75/16/75 22/22/22 21/21/21 
f 22/22/22 75/16/75 23/23/23 
f 24/24/24 26/26/26 76/25/76 
f 24/24/24 76/25/76 77/80/77 
f 24/24/24 77/80/77 28/28/28 
f 77/80/77 78/29/78 28/28/28 
f 30/30/30 79/32/79 31/31/31 
f 30/36/30 34/35/34 79/33/79 
f 34/35/34 80/81/80 79/33/79 
f 35/37/35 36/38/36 71/10/71 
f 35/37/35 71/10/71 81/39/81 
f 35/37/35 81/39/81 38/40/38 
f 39/41/39 38/40/38 69/77/69 
f 39/41/39 69/77/69 40/42/40 
f 81/39/81 69/77/69 38/40/38 
f 75/82/75 82/83/82 83/84/83 
f 84/85/84 83/84/83 82/83/82 
f 85/86/85 86/87/86 82/83/82 
f 72/12/72 73/78/73 21/21/21 
f 21/21/21 52/55/52 72/12/72 
f 13/13/13 18/18/18 73/78/73 
f 72/12/72 13/13/13 73/78/73 
f 72/12/72 52/55/52 46/48/46 
f 23/23/23 75/16/75 67/88/67 
f 75/82/75 83/84/83 67/75/67 
f 87/89/87 68/76/68 88/90/88 
f 87/89/87 88/90/88 78/29/78 
f 85/91/85 74/79/74 89/92/89 
f 71/10/71 36/38/36 61/66/61 
f 70/7/70 71/10/71 61/66/61 
f 88/90/88 61/66/61 62/67/62 
f 70/7/70 61/66/61 88/90/88 
f 78/29/78 62/67/62 28/28/28 
f 88/90/88 62/67/62 78/29/78 
f 89/92/89 87/89/87 78/29/78 
f 77/80/77 89/92/89 78/29/78 
f 90/93/90 76/25/76 26/26/26 
f 26/26/26 31/31/31 91/94/91 
f 26/26/26 91/94/91 90/93/90 
f 75/82/75 74/95/74 82/83/82 
f 3/71/3 23/23/23 67/88/67 
f 85/91/85 89/92/89 76/25/76 
f 85/91/85 76/25/76 90/93/90 
f 68/76/68 70/7/70 88/90/88 
f 81/39/81 71/10/71 69/77/69 
f 80/81/80 92/96/92 93/97/93 
f 93/98/93 91/94/91 31/31/31 
f 79/32/79 93/98/93 31/31/31 
f 79/33/79 80/81/80 93/97/93 
f 92/96/92 85/86/85 93/97/93 
f 86/87/86 85/86/85 92/96/92 
f 93/98/93 85/91/85 91/94/91 
f 90/93/90 91/94/91 85/91/85 
f 77/80/77 76/25/76 89/92/89 
f 50/53/50 51/54/51 47/49/47 
f 16/52/16 47/49/47 17/70/17 
f 82/83/82 86/87/86 84/85/84 
f 82/83/82 74/95/74 85/86/85 
f 94/99/94 69/77/69 68/76/68 
f 95/100/95 9/9/9 94/99/94 
f 40/42/40 69/77/69 41/43/41 
f 95/100/95 94/99/94 68/76/68 
f 42/44/42 9/9/9 95/100/95 
f 89/92/89 74/79/74 19/19/19 
f 96/101/96 89/92/89 19/19/19 
f 87/89/87 89/92/89 96/101/96 
f 96/101/96 19/19/19 56/60/56 
f 94/99/94 41/43/41 69/77/69 
f 94/99/94 57/61/57 41/43/41 
f 68/76/68 87/89/87 96/101/96 
f 95/100/95 68/76/68 96/101/96 
f 59/63/59 60/64/60 96/101/96 
f 60/64/60 95/100/95 96/101/96 
f 97/102/97 57/61/57 94/99/94 
f 57/61/57 97/102/97 4/4/4 
f 97/102/97 9/9/9 4/4/4 
f 9/9/9 97/102/97 94/99/94 
f 98/103/98 42/44/42 95/100/95 
f 42/44/42 98/103/98 8/8/8 
f 60/64/60 98/103/98 95/100/95 
f 98/103/98 60/64/60 8/8/8 
f 99/104/99 59/63/59 96/101/96 
f 59/63/59 99/104/99 54/58/54 
f 56/60/56 99/104/99 96/101/96 
f 99/104/99 56/60/56 54/58/54 
f 11/11/11 72/12/72 100/14/100 
f 43/45/43 44/46/44 100/14/100 
f 100/14/100 44/46/44 11/11/11 
f 43/45/43 100/14/100 45/47/45 
f 45/47/45 100/14/100 46/48/46 
f 100/14/100 72/12/72 46/48/46 
# 0 polygons - 184 triangles

