# 3ds Max Wavefront OBJ Exporter v0.99 - (c)2007 guruware
# File Created: 11.12.2022 01:18:54

mtllib huevoRoto.mtl

#
# object huevoRoto
#

v  0.4135 2.1309 1.0015
v  0.4187 2.1619 0.8616
v  0.3122 2.1754 0.8653
v  0.3096 2.1441 1.0068
v  0.2047 2.1800 0.8668
v  0.2047 2.1485 1.0089
v  0.5286 2.1592 0.7156
v  0.5229 2.1393 0.8561
v  0.6237 2.1077 0.8496
v  0.6313 2.1270 0.7116
v  0.6351 2.1357 0.5725
v  0.5315 2.1682 0.5740
v  0.4245 2.1915 0.5752
v  0.4226 2.1823 0.7188
v  0.3142 2.1961 0.7211
v  0.3151 2.2054 0.5760
v  0.2047 2.2101 0.5763
v  0.2047 2.2007 0.7220
v  0.5305 2.1654 0.4334
v  0.6338 2.1330 0.4341
v  0.6287 2.1194 0.2983
v  0.5267 2.1513 0.2953
v  0.4212 2.1742 0.2926
v  0.4238 2.1886 0.4326
v  0.3116 2.1623 0.1535
v  0.2047 2.1668 0.1523
v  0.2047 2.1925 0.2900
v  0.3135 2.1879 0.2908
v  0.4172 2.1490 0.1567
v  0.3148 2.2025 0.4321
v  0.2047 2.2071 0.4318
v  -0.1113 2.1268 0.1613
v  -0.1040 2.0922 0.0329
v  -0.2012 2.0629 0.0408
v  -0.2112 2.0958 0.1666
v  -0.2193 2.1194 0.2983
v  -0.1173 2.1513 0.2953
v  -0.0119 2.1742 0.2926
v  -0.0079 2.1490 0.1567
v  -0.0031 2.1135 0.0263
v  0.0978 2.1623 0.1535
v  0.0959 2.1879 0.2908
v  -0.1212 2.1654 0.4334
v  -0.2245 2.1330 0.4341
v  -0.2257 2.1357 0.5725
v  -0.1221 2.1682 0.5740
v  -0.0151 2.1915 0.5752
v  -0.0145 2.1886 0.4326
v  0.0945 2.2025 0.4321
v  0.0942 2.2054 0.5760
v  -0.3168 2.0785 0.3013
v  -0.3233 2.0913 0.4348
v  -0.4086 2.0285 0.3038
v  -0.4163 2.0405 0.4352
v  -0.4181 2.0431 0.5691
v  -0.3247 2.0940 0.5708
v  -0.4936 1.9694 0.3054
v  -0.5025 1.9806 0.4351
v  -0.5045 1.9829 0.5675
v  -0.1057 2.1092 0.9937
v  -0.0041 2.1309 1.0015
v  -0.0094 2.1619 0.8616
v  -0.1135 2.1393 0.8561
v  -0.2144 2.1077 0.8496
v  -0.2038 2.0787 0.9844
v  -0.1193 2.1592 0.7156
v  -0.2220 2.1270 0.7116
v  -0.0132 2.1823 0.7188
v  0.0997 2.1441 1.0068
v  0.0971 2.1754 0.8653
v  0.0952 2.1961 0.7211
v  -0.3107 2.0673 0.8427
v  -0.3202 2.0856 0.7075
v  -0.4127 2.0352 0.7035
v  -0.4014 2.0179 0.8362
v  -0.4984 1.9756 0.7001
# 76 vertices

vn 0.1782 0.9505 0.2547
vn 0.1743 0.9678 0.1817
vn 0.0876 0.9797 0.1802
vn 0.0903 0.9631 0.2534
vn 0.0000 0.9837 0.1796
vn 0.0000 0.9675 0.2528
vn 0.2581 0.9602 0.1065
vn 0.2610 0.9477 0.1837
vn 0.3482 0.9188 0.1858
vn 0.3461 0.9319 0.1084
vn 0.3446 0.9385 0.0232
vn 0.2565 0.9663 0.0227
vn 0.1699 0.9852 0.0223
vn 0.1715 0.9796 0.1049
vn 0.0857 0.9909 0.1037
vn 0.0847 0.9962 0.0220
vn 0.0000 0.9998 0.0219
vn 0.0000 0.9946 0.1033
vn 0.2561 0.9646 -0.0632
vn 0.3439 0.9368 -0.0641
vn 0.3434 0.9278 -0.1460
vn 0.2564 0.9556 -0.1452
vn 0.1706 0.9747 -0.1443
vn 0.1697 0.9835 -0.0624
vn 0.0864 0.9707 -0.2243
vn 0.0000 0.9746 -0.2241
vn 0.0000 0.9897 -0.1432
vn 0.0854 0.9860 -0.1435
vn 0.1717 0.9592 -0.2247
vn 0.0847 0.9945 -0.0618
vn 0.0000 0.9981 -0.0616
vn -0.2567 0.9400 -0.2249
vn -0.2565 0.9176 -0.3037
vn -0.3401 0.8907 -0.3017
vn -0.3421 0.9124 -0.2247
vn -0.3434 0.9278 -0.1460
vn -0.2564 0.9556 -0.1452
vn -0.1706 0.9747 -0.1443
vn -0.1717 0.9592 -0.2247
vn -0.1727 0.9366 -0.3049
vn -0.0864 0.9707 -0.2243
vn -0.0854 0.9860 -0.1435
vn -0.2561 0.9646 -0.0632
vn -0.3439 0.9368 -0.0641
vn -0.3446 0.9385 0.0232
vn -0.2565 0.9663 0.0227
vn -0.1699 0.9852 0.0223
vn -0.1697 0.9835 -0.0624
vn -0.0847 0.9945 -0.0618
vn -0.0847 0.9962 0.0220
vn -0.4320 0.8899 -0.1466
vn -0.4338 0.8987 -0.0649
vn -0.5217 0.8404 -0.1471
vn -0.5248 0.8487 -0.0656
vn -0.5262 0.8500 0.0242
vn -0.4348 0.9002 0.0237
vn -0.6112 0.7776 -0.1476
vn -0.6161 0.7849 -0.0662
vn -0.6178 0.7860 0.0245
vn -0.2648 0.9296 0.2562
vn -0.1782 0.9505 0.2547
vn -0.1743 0.9678 0.1817
vn -0.2610 0.9477 0.1837
vn -0.3482 0.9188 0.1858
vn -0.3508 0.9003 0.2576
vn -0.2581 0.9602 0.1065
vn -0.3461 0.9319 0.1084
vn -0.1715 0.9796 0.1049
vn -0.0903 0.9631 0.2534
vn -0.0876 0.9797 0.1802
vn -0.0857 0.9909 0.1037
vn -0.4362 0.8800 0.1878
vn -0.4355 0.8934 0.1104
vn -0.5260 0.8431 0.1122
vn -0.5246 0.8299 0.1897
vn -0.6161 0.7794 0.1137
# 76 vertex normals

vt 0.2474 0.4502 0.0000
vt 0.2184 0.4630 0.0000
vt 0.2080 0.4400 0.0000
vt 0.2403 0.4269 0.0000
vt 0.1971 0.4160 0.0000
vt 0.2330 0.4025 0.0000
vt 0.2033 0.4992 0.0000
vt 0.2281 0.4839 0.0000
vt 0.2373 0.5029 0.0000
vt 0.2150 0.5173 0.0000
vt 0.1940 0.5337 0.0000
vt 0.1801 0.5169 0.0000
vt 0.1649 0.4984 0.0000
vt 0.1907 0.4792 0.0000
vt 0.1769 0.4572 0.0000
vt 0.1482 0.4781 0.0000
vt 0.1307 0.4568 0.0000
vt 0.1626 0.4342 0.0000
vt 0.1588 0.5366 0.0000
vt 0.1744 0.5517 0.0000
vt 0.1567 0.5710 0.0000
vt 0.1397 0.5579 0.0000
vt 0.1210 0.5439 0.0000
vt 0.1416 0.5202 0.0000
vt 0.0820 0.5568 0.0000
vt 0.0595 0.5441 0.0000
vt 0.0791 0.5131 0.0000
vt 0.1005 0.5287 0.0000
vt 0.1035 0.5691 0.0000
vt 0.1227 0.5022 0.0000
vt 0.1028 0.4835 0.0000
vt 0.5809 0.1232 0.0000
vt 0.6046 0.1094 0.0000
vt 0.6132 0.1279 0.0000
vt 0.5918 0.1412 0.0000
vt 0.5712 0.1568 0.0000
vt 0.5581 0.1397 0.0000
vt 0.5441 0.1210 0.0000
vt 0.5693 0.1035 0.0000
vt 0.5956 0.0891 0.0000
vt 0.5570 0.0819 0.0000
vt 0.5289 0.1005 0.0000
vt 0.5132 0.0790 0.0000
vt 0.5443 0.0594 0.0000
vt 0.5367 0.1588 0.0000
vt 0.5518 0.1745 0.0000
vt 0.5338 0.1940 0.0000
vt 0.5170 0.1801 0.0000
vt 0.4985 0.1649 0.0000
vt 0.5203 0.1416 0.0000
vt 0.5023 0.1226 0.0000
vt 0.4781 0.1482 0.0000
vt 0.4568 0.1306 0.0000
vt 0.4836 0.1028 0.0000
vt 0.5835 0.1723 0.0000
vt 0.5659 0.1889 0.0000
vt 0.5952 0.1866 0.0000
vt 0.5790 0.2021 0.0000
vt 0.5636 0.2188 0.0000
vt 0.5493 0.2069 0.0000
vt 0.6066 0.1998 0.0000
vt 0.5914 0.2144 0.0000
vt 0.5769 0.2301 0.0000
vt 0.4715 0.2542 0.0000
vt 0.4502 0.2475 0.0000
vt 0.4630 0.2185 0.0000
vt 0.4839 0.2282 0.0000
vt 0.5029 0.2374 0.0000
vt 0.4909 0.2607 0.0000
vt 0.4992 0.2034 0.0000
vt 0.5174 0.2151 0.0000
vt 0.4793 0.1908 0.0000
vt 0.4268 0.2404 0.0000
vt 0.4024 0.2330 0.0000
vt 0.4160 0.1971 0.0000
vt 0.4400 0.2080 0.0000
vt 0.4572 0.1769 0.0000
vt 0.4342 0.1625 0.0000
vt 0.5203 0.2462 0.0000
vt 0.5340 0.2261 0.0000
vt 0.5492 0.2365 0.0000
vt 0.5361 0.2548 0.0000
vt 0.5633 0.2464 0.0000
# 83 texture coords

o huevoRoto
g huevoRoto
usemtl _10858_egg_v2_L3_eggegg_egg_jpg
s 1
f 1/1/1 2/2/2 3/3/3 
f 3/3/3 4/4/4 1/1/1 
f 4/4/4 3/3/3 5/5/5 
f 5/5/5 6/6/6 4/4/4 
f 7/7/7 8/8/8 9/9/9 
f 9/9/9 10/10/10 7/7/7 
f 10/10/10 11/11/11 12/12/12 
f 12/12/12 7/7/7 10/10/10 
f 7/7/7 12/12/12 13/13/13 
f 13/13/13 14/14/14 7/7/7 
f 14/14/14 2/2/2 8/8/8 
f 8/8/8 7/7/7 14/14/14 
f 15/15/15 3/3/3 2/2/2 
f 2/2/2 14/14/14 15/15/15 
f 14/14/14 13/13/13 16/16/16 
f 16/16/16 15/15/15 14/14/14 
f 15/15/15 16/16/16 17/17/17 
f 17/17/17 18/18/18 15/15/15 
f 18/18/18 5/5/5 3/3/3 
f 3/3/3 15/15/15 18/18/18 
f 19/19/19 20/20/20 21/21/21 
f 21/21/21 22/22/22 19/19/19 
f 22/22/22 23/23/23 24/24/24 
f 24/24/24 19/19/19 22/22/22 
f 13/13/13 12/12/12 19/19/19 
f 19/19/19 24/24/24 13/13/13 
f 11/11/11 20/20/20 19/19/19 
f 19/19/19 12/12/12 11/11/11 
f 25/25/25 26/26/26 27/27/27 
f 27/27/27 28/28/28 25/25/25 
f 28/28/28 23/23/23 29/29/29 
f 29/29/29 25/25/25 28/28/28 
f 30/30/30 24/24/24 23/23/23 
f 23/23/23 28/28/28 30/30/30 
f 27/27/27 31/31/31 30/30/30 
f 30/30/30 28/28/28 27/27/27 
f 17/17/17 16/16/16 30/30/30 
f 30/30/30 31/31/31 17/17/17 
f 13/13/13 24/24/24 30/30/30 
f 30/30/30 16/16/16 13/13/13 
f 32/32/32 33/33/33 34/34/34 
f 34/34/34 35/35/35 32/32/32 
f 35/35/35 36/36/36 37/37/37 
f 37/37/37 32/32/32 35/35/35 
f 32/32/32 37/37/37 38/38/38 
f 38/38/38 39/39/39 32/32/32 
f 39/39/39 40/40/40 33/33/33 
f 33/33/33 32/32/32 39/39/39 
f 40/40/40 39/39/39 41/41/41 
f 39/39/39 38/38/38 42/42/42 
f 42/42/42 41/41/41 39/39/39 
f 41/41/41 42/42/42 27/43/27 
f 27/43/27 26/44/26 41/41/41 
f 43/45/43 37/37/37 36/36/36 
f 36/36/36 44/46/44 43/45/43 
f 45/47/45 46/48/46 43/45/43 
f 43/45/43 44/46/44 45/47/45 
f 47/49/47 48/50/48 43/45/43 
f 43/45/43 46/48/46 47/49/47 
f 48/50/48 38/38/38 37/37/37 
f 37/37/37 43/45/43 48/50/48 
f 49/51/49 42/42/42 38/38/38 
f 38/38/38 48/50/48 49/51/49 
f 47/49/47 50/52/50 49/51/49 
f 49/51/49 48/50/48 47/49/47 
f 17/53/17 31/54/31 49/51/49 
f 49/51/49 50/52/50 17/53/17 
f 27/43/27 42/42/42 49/51/49 
f 49/51/49 31/54/31 27/43/27 
f 44/46/44 36/36/36 51/55/51 
f 51/55/51 52/56/52 44/46/44 
f 52/56/52 51/55/51 53/57/53 
f 53/57/53 54/58/54 52/56/52 
f 55/59/55 56/60/56 52/56/52 
f 52/56/52 54/58/54 55/59/55 
f 45/47/45 44/46/44 52/56/52 
f 52/56/52 56/60/56 45/47/45 
f 54/58/54 53/57/53 57/61/57 
f 57/61/57 58/62/58 54/58/54 
f 59/63/59 55/59/55 54/58/54 
f 54/58/54 58/62/58 59/63/59 
f 60/64/60 61/65/61 62/66/62 
f 62/66/62 63/67/63 60/64/60 
f 63/67/63 64/68/64 65/69/65 
f 65/69/65 60/64/60 63/67/63 
f 66/70/66 67/71/67 64/68/64 
f 64/68/64 63/67/63 66/70/66 
f 63/67/63 62/66/62 68/72/68 
f 68/72/68 66/70/66 63/67/63 
f 66/70/66 68/72/68 47/49/47 
f 47/49/47 46/48/46 66/70/66 
f 46/48/46 45/47/45 67/71/67 
f 67/71/67 66/70/66 46/48/46 
f 69/73/69 6/74/6 5/75/5 
f 5/75/5 70/76/70 69/73/69 
f 70/76/70 62/66/62 61/65/61 
f 61/65/61 69/73/69 70/76/70 
f 71/77/71 68/72/68 62/66/62 
f 62/66/62 70/76/70 71/77/71 
f 70/76/70 5/75/5 18/78/18 
f 18/78/18 71/77/71 70/76/70 
f 71/77/71 18/78/18 17/53/17 
f 17/53/17 50/52/50 71/77/71 
f 50/52/50 47/49/47 68/72/68 
f 68/72/68 71/77/71 50/52/50 
f 72/79/72 64/68/64 67/71/67 
f 67/71/67 73/80/73 72/79/72 
f 73/80/73 67/71/67 45/47/45 
f 45/47/45 56/60/56 73/80/73 
f 56/60/56 55/59/55 74/81/74 
f 74/81/74 73/80/73 56/60/56 
f 73/80/73 74/81/74 75/82/75 
f 75/82/75 72/79/72 73/80/73 
f 76/83/76 74/81/74 55/59/55 
f 55/59/55 59/63/59 76/83/76 
# 115 faces

